<svg width="711" height="717" viewBox="0 0 711 717" fill="none" xmlns="http://www.w3.org/2000/svg">
<path d="M630 0C674.735 0 711 36.2649 711 81V636C711 680.735 674.735 717 630 717H81C36.2649 717 0 680.735 0 636V81C0 36.2649 36.2649 0 81 0H630ZM356 203C298.562 203 252 248.667 252 305C252 347.074 277.974 383.196 315.053 398.788L286.111 551.317C285.527 554.397 287.889 557.25 291.023 557.25H420.976C424.111 557.25 426.472 554.398 425.888 551.317L396.945 398.788C434.025 383.196 460 347.074 460 305C460 248.667 413.438 203 356 203ZM609.057 261.466H572.082V276.579H609.057V313.554H624.171V276.579H661.145V261.466H624.171V224.491H609.057V261.466ZM531.777 74.5303C529.515 63.9967 514.485 63.9966 512.223 74.5303L498.608 137.931C497.782 141.777 494.777 144.782 490.931 145.608L427.53 159.223C416.997 161.485 416.997 176.515 427.53 178.777L490.931 192.392C494.777 193.218 497.782 196.223 498.608 200.069L512.223 263.47C514.485 274.003 529.515 274.003 531.777 263.47L545.392 200.069C546.218 196.223 549.223 193.218 553.069 192.392L616.47 178.777C627.003 176.515 627.003 161.485 616.47 159.223L553.069 145.608C549.223 144.782 546.218 141.777 545.392 137.931L531.777 74.5303Z" fill="#C6F728"/>
</svg>
